# Blender v2.79 (sub 0) OBJ File: 'figure.blend'
# www.blender.org
mtllib figure.mtl
o Cube
v 1.000000 -1.000000 -1.000000
v 1.000000 -1.000000 1.000000
v -1.000000 -1.000000 1.000000
v -1.000000 -1.000000 -1.000000
v 1.000000 1.000000 -0.999999
v 1.291967 1.475515 1.543726
v -1.000000 1.000000 1.000000
v -1.000000 1.000000 -1.000000
vt 0.691663 0.695959
vt 0.383327 1.000000
vt 0.383327 0.695959
vt 0.693136 0.391917
vt 0.383327 0.089335
vt 0.741303 0.000000
vt 0.074471 0.388624
vt 0.383327 0.085096
vt 0.382289 0.388624
vt 0.049234 0.771896
vt 0.359544 0.469813
vt 0.355610 0.771896
vt 1.000000 0.695959
vt 0.691663 0.391917
vt 1.000000 0.391917
vt 0.691663 0.391917
vt 0.383327 0.695959
vt 0.383327 0.391917
vt 0.691663 1.000000
vt 0.386266 0.391917
vt 0.000000 0.000000
vt 0.000000 0.388624
vt 0.691664 0.695959
vt 0.691663 0.695958
vn 0.0000 -1.0000 0.0000
vn -0.1632 0.9730 -0.1632
vn 1.0000 -0.0000 0.0000
vn -0.0000 0.0000 1.0000
vn -1.0000 -0.0000 -0.0000
vn 0.0000 0.0000 -1.0000
vn 0.0000 1.0000 -0.0000
vn 0.9908 -0.0958 -0.0958
vn -0.1893 -0.1893 0.9635
usemtl Material.001
s off
f 2/1/1 4/2/1 1/3/1
f 5/4/2 7/5/2 6/6/2
f 5/7/3 2/8/3 1/9/3
f 2/10/4 7/11/4 3/12/4
f 3/13/5 8/14/5 4/15/5
f 1/16/6 8/17/6 5/18/6
f 2/1/1 3/19/1 4/2/1
f 5/4/7 8/20/7 7/5/7
f 5/7/8 6/21/8 2/8/8
f 2/10/9 6/22/9 7/11/9
f 3/13/5 7/23/5 8/14/5
f 1/16/6 4/24/6 8/17/6
